# xmcd
#
# Track frame offsets:
#	150
#	16159
#	29720
#	45637
#	60606
#	76359
#	91792
#	107457
#
# Disc length: 1632 seconds
#
# Revision: 1
# Processed by: cddbd v1.5.2PL0 Copyright (c) Steve Scherf et al.
# Submitted via: EZCDAudioConverter 1.5.5.1
#
DISCID=56065e08
DTITLE=Piri Piri - The Desert Pusa
DYEAR=2000
DGENRE=
TTITLE0=Mapungubwe
TTITLE1=Tsanu
TTITLE2=Soldier
TTITLE3=Bilimanbo
TTITLE4=Piri Piri
TTITLE5=Tshidongo - Tshidongo
TTITLE6=Isigamba
TTITLE7=Tshituku - Tshituku 
EXTD=
EXTT0=
EXTT1=
EXTT2=
EXTT3=
EXTT4=
EXTT5=
EXTT6=
EXTT7=
PLAYORDER=
